<mxfile host="app.diagrams.net" modified="2023-06-27T10:24:15.745Z" agent="Mozilla/5.0 (X11; Linux x86_64) AppleWebKit/537.36 (KHTML, like Gecko) Chrome/114.0.0.0 Safari/537.36" etag="jEh02AxmMlcrxNIuFEKq" version="21.5.0" type="device">
  <diagram name="Strona-1" id="4Adp-zptz39nlCtseuFq">
    <mxGraphModel dx="2000" dy="716" grid="1" gridSize="10" guides="1" tooltips="1" connect="1" arrows="1" fold="1" page="1" pageScale="1" pageWidth="827" pageHeight="1169" math="0" shadow="0">
      <root>
        <mxCell id="0" />
        <mxCell id="1" parent="0" />
        <mxCell id="VtXLInU4RL5LBk8hUxaa-2" value="&lt;b style=&quot;border-color: var(--border-color);&quot;&gt;sctool CLI / manager API client&lt;/b&gt;" style="rounded=0;whiteSpace=wrap;html=1;" parent="1" vertex="1">
          <mxGeometry x="10" y="80" width="140" height="60" as="geometry" />
        </mxCell>
        <mxCell id="VtXLInU4RL5LBk8hUxaa-3" value="&lt;b&gt;manager REST API server&lt;/b&gt;" style="rounded=0;whiteSpace=wrap;html=1;" parent="1" vertex="1">
          <mxGeometry x="270" y="80" width="120" height="60" as="geometry" />
        </mxCell>
        <mxCell id="VtXLInU4RL5LBk8hUxaa-4" value="&lt;b&gt;DB&lt;/b&gt;" style="rounded=0;whiteSpace=wrap;html=1;" parent="1" vertex="1">
          <mxGeometry x="410" y="80" width="120" height="60" as="geometry" />
        </mxCell>
        <mxCell id="VtXLInU4RL5LBk8hUxaa-5" value="&lt;b&gt;Scheduler SVC&lt;/b&gt;" style="rounded=0;whiteSpace=wrap;html=1;fillColor=#f8cecc;strokeColor=#b85450;" parent="1" vertex="1">
          <mxGeometry x="550" y="80" width="120" height="60" as="geometry" />
        </mxCell>
        <mxCell id="VtXLInU4RL5LBk8hUxaa-6" value="&lt;b&gt;SVC (backup, restore, repair, healthcheck)&lt;/b&gt;" style="rounded=0;whiteSpace=wrap;html=1;" parent="1" vertex="1">
          <mxGeometry x="690" y="80" width="120" height="60" as="geometry" />
        </mxCell>
        <mxCell id="VtXLInU4RL5LBk8hUxaa-7" value="" style="endArrow=none;dashed=1;html=1;dashPattern=1 3;strokeWidth=2;rounded=0;" parent="1" edge="1">
          <mxGeometry width="50" height="50" relative="1" as="geometry">
            <mxPoint x="210" y="520" as="sourcePoint" />
            <mxPoint x="210" y="80" as="targetPoint" />
          </mxGeometry>
        </mxCell>
        <mxCell id="VtXLInU4RL5LBk8hUxaa-8" value="" style="endArrow=none;html=1;rounded=0;" parent="1" edge="1">
          <mxGeometry width="50" height="50" relative="1" as="geometry">
            <mxPoint x="80" y="520" as="sourcePoint" />
            <mxPoint x="80" y="140" as="targetPoint" />
          </mxGeometry>
        </mxCell>
        <mxCell id="VtXLInU4RL5LBk8hUxaa-9" value="" style="endArrow=none;html=1;rounded=0;" parent="1" edge="1">
          <mxGeometry width="50" height="50" relative="1" as="geometry">
            <mxPoint x="329.5" y="520" as="sourcePoint" />
            <mxPoint x="329.5" y="140" as="targetPoint" />
          </mxGeometry>
        </mxCell>
        <mxCell id="VtXLInU4RL5LBk8hUxaa-10" value="" style="endArrow=none;html=1;rounded=0;" parent="1" edge="1">
          <mxGeometry width="50" height="50" relative="1" as="geometry">
            <mxPoint x="469.5" y="520" as="sourcePoint" />
            <mxPoint x="469.5" y="140" as="targetPoint" />
          </mxGeometry>
        </mxCell>
        <mxCell id="VtXLInU4RL5LBk8hUxaa-11" value="" style="endArrow=none;html=1;rounded=0;" parent="1" edge="1">
          <mxGeometry width="50" height="50" relative="1" as="geometry">
            <mxPoint x="609.5" y="520" as="sourcePoint" />
            <mxPoint x="609.5" y="140" as="targetPoint" />
          </mxGeometry>
        </mxCell>
        <mxCell id="VtXLInU4RL5LBk8hUxaa-12" value="" style="endArrow=none;html=1;rounded=0;" parent="1" edge="1">
          <mxGeometry width="50" height="50" relative="1" as="geometry">
            <mxPoint x="749.5" y="520" as="sourcePoint" />
            <mxPoint x="749.5" y="140" as="targetPoint" />
          </mxGeometry>
        </mxCell>
        <mxCell id="VtXLInU4RL5LBk8hUxaa-13" value="&lt;font style=&quot;font-size: 10px;&quot;&gt;POST&lt;br&gt;&amp;nbsp;/api/v1/cluster/{ID}/tasks&lt;/font&gt;" style="endArrow=classic;html=1;rounded=0;" parent="1" edge="1">
          <mxGeometry width="50" height="50" relative="1" as="geometry">
            <mxPoint x="80" y="170" as="sourcePoint" />
            <mxPoint x="330" y="170" as="targetPoint" />
          </mxGeometry>
        </mxCell>
        <mxCell id="VtXLInU4RL5LBk8hUxaa-16" value="&lt;font style=&quot;font-size: 10px;&quot;&gt;new task&lt;/font&gt;" style="endArrow=classic;html=1;rounded=0;strokeColor=default;shadow=0;startArrow=none;startFill=0;" parent="1" edge="1">
          <mxGeometry width="50" height="50" relative="1" as="geometry">
            <mxPoint x="330" y="180" as="sourcePoint" />
            <mxPoint x="610" y="180" as="targetPoint" />
            <mxPoint as="offset" />
          </mxGeometry>
        </mxCell>
        <mxCell id="VtXLInU4RL5LBk8hUxaa-18" value="&lt;font style=&quot;font-size: 10px;&quot;&gt;validate &amp;amp; save to &lt;br&gt;&lt;b style=&quot;&quot;&gt;scheduler_task&lt;/b&gt;&lt;/font&gt;" style="endArrow=classic;html=1;rounded=0;" parent="1" edge="1">
          <mxGeometry width="50" height="50" relative="1" as="geometry">
            <mxPoint x="610" y="200" as="sourcePoint" />
            <mxPoint x="470" y="200" as="targetPoint" />
          </mxGeometry>
        </mxCell>
        <mxCell id="VtXLInU4RL5LBk8hUxaa-20" value="" style="endArrow=classic;html=1;rounded=0;dashed=1;" parent="1" edge="1">
          <mxGeometry width="50" height="50" relative="1" as="geometry">
            <mxPoint x="470" y="240" as="sourcePoint" />
            <mxPoint x="610" y="240" as="targetPoint" />
          </mxGeometry>
        </mxCell>
        <mxCell id="VtXLInU4RL5LBk8hUxaa-21" value="" style="endArrow=classic;html=1;rounded=0;dashed=1;" parent="1" edge="1">
          <mxGeometry width="50" height="50" relative="1" as="geometry">
            <mxPoint x="610" y="250" as="sourcePoint" />
            <mxPoint x="330" y="250" as="targetPoint" />
          </mxGeometry>
        </mxCell>
        <mxCell id="VtXLInU4RL5LBk8hUxaa-22" value="&lt;font style=&quot;font-size: 10px;&quot;&gt;task id&lt;/font&gt;" style="endArrow=classic;html=1;rounded=0;dashed=1;" parent="1" edge="1">
          <mxGeometry width="50" height="50" relative="1" as="geometry">
            <mxPoint x="330" y="260" as="sourcePoint" />
            <mxPoint x="80" y="260" as="targetPoint" />
            <Array as="points">
              <mxPoint x="200" y="260" />
            </Array>
            <mxPoint as="offset" />
          </mxGeometry>
        </mxCell>
        <mxCell id="VtXLInU4RL5LBk8hUxaa-23" value="" style="endArrow=classic;html=1;rounded=0;" parent="1" edge="1">
          <mxGeometry width="50" height="50" relative="1" as="geometry">
            <mxPoint x="610" y="280" as="sourcePoint" />
            <mxPoint x="750" y="280" as="targetPoint" />
          </mxGeometry>
        </mxCell>
        <mxCell id="VtXLInU4RL5LBk8hUxaa-24" value="&lt;font style=&quot;font-size: 10px;&quot;&gt;start scheduled task&lt;/font&gt;" style="edgeLabel;html=1;align=center;verticalAlign=middle;resizable=0;points=[];fontSize=10;" parent="VtXLInU4RL5LBk8hUxaa-23" vertex="1" connectable="0">
          <mxGeometry x="-0.1236" y="-1" relative="1" as="geometry">
            <mxPoint as="offset" />
          </mxGeometry>
        </mxCell>
        <mxCell id="VtXLInU4RL5LBk8hUxaa-25" value="" style="endArrow=classic;html=1;rounded=0;dashed=1;" parent="1" edge="1">
          <mxGeometry width="50" height="50" relative="1" as="geometry">
            <mxPoint x="750" y="300" as="sourcePoint" />
            <mxPoint x="610" y="300" as="targetPoint" />
          </mxGeometry>
        </mxCell>
        <mxCell id="VtXLInU4RL5LBk8hUxaa-26" value="&lt;font style=&quot;font-size: 10px;&quot;&gt;update the task progress&amp;nbsp;&lt;br style=&quot;font-size: 10px;&quot;&gt;run_progress&lt;/font&gt;" style="endArrow=classic;html=1;rounded=0;fontSize=10;" parent="1" edge="1">
          <mxGeometry width="50" height="50" relative="1" as="geometry">
            <mxPoint x="750" y="320" as="sourcePoint" />
            <mxPoint x="470" y="320" as="targetPoint" />
          </mxGeometry>
        </mxCell>
        <mxCell id="VtXLInU4RL5LBk8hUxaa-27" value="" style="endArrow=classic;html=1;rounded=0;dashed=1;" parent="1" edge="1">
          <mxGeometry width="50" height="50" relative="1" as="geometry">
            <mxPoint x="470" y="340" as="sourcePoint" />
            <mxPoint x="750" y="340" as="targetPoint" />
          </mxGeometry>
        </mxCell>
        <mxCell id="VtXLInU4RL5LBk8hUxaa-30" value="&lt;font style=&quot;font-size: 10px;&quot;&gt;update the task progress&amp;nbsp;&lt;br style=&quot;font-size: 10px;&quot;&gt;run_progress&lt;/font&gt;" style="endArrow=classic;html=1;rounded=0;fontSize=10;" parent="1" edge="1">
          <mxGeometry width="50" height="50" relative="1" as="geometry">
            <mxPoint x="750" y="380" as="sourcePoint" />
            <mxPoint x="470" y="380" as="targetPoint" />
          </mxGeometry>
        </mxCell>
        <mxCell id="VtXLInU4RL5LBk8hUxaa-31" value="" style="endArrow=classic;html=1;rounded=0;dashed=1;" parent="1" edge="1">
          <mxGeometry width="50" height="50" relative="1" as="geometry">
            <mxPoint x="470" y="400" as="sourcePoint" />
            <mxPoint x="750" y="400" as="targetPoint" />
          </mxGeometry>
        </mxCell>
        <mxCell id="VtXLInU4RL5LBk8hUxaa-32" value="&lt;font style=&quot;font-size: 10px;&quot;&gt;DONE update the task progress&amp;nbsp;&lt;br style=&quot;font-size: 10px;&quot;&gt;run_progress&lt;/font&gt;" style="endArrow=classic;html=1;rounded=0;fontSize=10;" parent="1" edge="1">
          <mxGeometry width="50" height="50" relative="1" as="geometry">
            <mxPoint x="750" y="430" as="sourcePoint" />
            <mxPoint x="470" y="430" as="targetPoint" />
            <mxPoint as="offset" />
          </mxGeometry>
        </mxCell>
        <mxCell id="VtXLInU4RL5LBk8hUxaa-33" value="" style="endArrow=classic;html=1;rounded=0;dashed=1;" parent="1" edge="1">
          <mxGeometry width="50" height="50" relative="1" as="geometry">
            <mxPoint x="470" y="450" as="sourcePoint" />
            <mxPoint x="750" y="450" as="targetPoint" />
          </mxGeometry>
        </mxCell>
        <mxCell id="VtXLInU4RL5LBk8hUxaa-34" value="&lt;font style=&quot;font-size: 10px;&quot;&gt;GET&lt;br&gt;/api/v1/cluster/{ID}/task/{type}/{task_ID}/{run_ID}&lt;/font&gt;" style="endArrow=classic;html=1;rounded=0;" parent="1" edge="1">
          <mxGeometry width="50" height="50" relative="1" as="geometry">
            <mxPoint x="80" y="360" as="sourcePoint" />
            <mxPoint x="330" y="360" as="targetPoint" />
            <Array as="points">
              <mxPoint x="210" y="360" />
            </Array>
          </mxGeometry>
        </mxCell>
        <mxCell id="VtXLInU4RL5LBk8hUxaa-36" value="&lt;font style=&quot;font-size: 10px;&quot;&gt;query run_progress&lt;/font&gt;" style="endArrow=classic;html=1;rounded=0;" parent="1" edge="1">
          <mxGeometry width="50" height="50" relative="1" as="geometry">
            <mxPoint x="330" y="370" as="sourcePoint" />
            <mxPoint x="470" y="370" as="targetPoint" />
            <Array as="points">
              <mxPoint x="400" y="370" />
            </Array>
            <mxPoint as="offset" />
          </mxGeometry>
        </mxCell>
        <mxCell id="VtXLInU4RL5LBk8hUxaa-37" value="" style="endArrow=classic;html=1;rounded=0;dashed=1;" parent="1" edge="1">
          <mxGeometry width="50" height="50" relative="1" as="geometry">
            <mxPoint x="470" y="390" as="sourcePoint" />
            <mxPoint x="330" y="390" as="targetPoint" />
          </mxGeometry>
        </mxCell>
        <mxCell id="VtXLInU4RL5LBk8hUxaa-38" value="" style="endArrow=classic;html=1;rounded=0;dashed=1;" parent="1" edge="1">
          <mxGeometry width="50" height="50" relative="1" as="geometry">
            <mxPoint x="330" y="400" as="sourcePoint" />
            <mxPoint x="80" y="400" as="targetPoint" />
          </mxGeometry>
        </mxCell>
        <mxCell id="VtXLInU4RL5LBk8hUxaa-39" value="&lt;font style=&quot;font-size: 10px;&quot;&gt;GET&lt;br&gt;/api/v1/cluster/{ID}/task/{type}/{task_ID}/{run_ID}&lt;/font&gt;" style="endArrow=classic;html=1;rounded=0;" parent="1" edge="1">
          <mxGeometry width="50" height="50" relative="1" as="geometry">
            <mxPoint x="80" y="460" as="sourcePoint" />
            <mxPoint x="330" y="460" as="targetPoint" />
          </mxGeometry>
        </mxCell>
        <mxCell id="VtXLInU4RL5LBk8hUxaa-40" value="&lt;font style=&quot;font-size: 10px;&quot;&gt;query run_progress&lt;/font&gt;" style="endArrow=classic;html=1;rounded=0;" parent="1" edge="1">
          <mxGeometry width="50" height="50" relative="1" as="geometry">
            <mxPoint x="330" y="470" as="sourcePoint" />
            <mxPoint x="470" y="470" as="targetPoint" />
          </mxGeometry>
        </mxCell>
        <mxCell id="VtXLInU4RL5LBk8hUxaa-41" value="" style="endArrow=classic;html=1;rounded=0;dashed=1;" parent="1" edge="1">
          <mxGeometry width="50" height="50" relative="1" as="geometry">
            <mxPoint x="470" y="490" as="sourcePoint" />
            <mxPoint x="330" y="490" as="targetPoint" />
          </mxGeometry>
        </mxCell>
        <mxCell id="VtXLInU4RL5LBk8hUxaa-42" value="" style="endArrow=classic;html=1;rounded=0;dashed=1;" parent="1" edge="1">
          <mxGeometry width="50" height="50" relative="1" as="geometry">
            <mxPoint x="330" y="500" as="sourcePoint" />
            <mxPoint x="80" y="500" as="targetPoint" />
          </mxGeometry>
        </mxCell>
        <mxCell id="VtXLInU4RL5LBk8hUxaa-50" value="Schedule the backup task" style="text;html=1;align=center;verticalAlign=middle;resizable=0;points=[];autosize=1;strokeColor=none;fillColor=none;rotation=90;" parent="1" vertex="1">
          <mxGeometry x="-30" y="210" width="160" height="30" as="geometry" />
        </mxCell>
        <mxCell id="VtXLInU4RL5LBk8hUxaa-51" value="Check the progress" style="text;html=1;align=center;verticalAlign=middle;resizable=0;points=[];autosize=1;strokeColor=none;fillColor=none;rotation=90;" parent="1" vertex="1">
          <mxGeometry x="-15" y="390" width="130" height="30" as="geometry" />
        </mxCell>
      </root>
    </mxGraphModel>
  </diagram>
</mxfile>
